<mxfile host="app.diagrams.net" modified="2024-08-21T18:28:54.131Z" agent="Mozilla/5.0 (Windows NT 10.0; Win64; x64; rv:130.0) Gecko/20100101 Firefox/130.0" etag="TocnS1vOiI3rMJM7MvAU" version="23.1.2" type="device">
  <diagram name="Page-1" id="BcHOSy3uyUoJaD82D-er">
    <mxGraphModel dx="2422" dy="958" grid="1" gridSize="10" guides="1" tooltips="1" connect="1" arrows="1" fold="1" page="1" pageScale="1" pageWidth="850" pageHeight="1100" math="0" shadow="0">
      <root>
        <mxCell id="0" />
        <mxCell id="1" parent="0" />
        <mxCell id="7PUVm03l3qs85_bHvU6c-1" value="" style="rounded=0;whiteSpace=wrap;html=1;movable=0;resizable=0;rotatable=0;deletable=0;editable=0;locked=1;connectable=0;" vertex="1" parent="1">
          <mxGeometry x="120" y="70" width="630" height="930" as="geometry" />
        </mxCell>
        <mxCell id="7PUVm03l3qs85_bHvU6c-2" value="" style="shape=image;verticalLabelPosition=bottom;labelBackgroundColor=default;verticalAlign=top;aspect=fixed;imageAspect=0;image=https://ih1.redbubble.net/image.5413513681.8870/bg,f8f8f8-flat,750x,075,f-pad,750x1000,f8f8f8.u5.jpg;" vertex="1" parent="1">
          <mxGeometry x="130" y="80" width="127.5" height="170" as="geometry" />
        </mxCell>
        <mxCell id="7PUVm03l3qs85_bHvU6c-12" value="" style="sketch=0;outlineConnect=0;fontColor=#232F3E;gradientColor=none;fillColor=#232F3D;strokeColor=none;dashed=0;verticalLabelPosition=bottom;verticalAlign=top;align=center;html=1;fontSize=12;fontStyle=0;aspect=fixed;pointerEvents=1;shape=mxgraph.aws4.alert;" vertex="1" parent="1">
          <mxGeometry x="383.7" y="311.15" width="32.61" height="28.85" as="geometry" />
        </mxCell>
        <mxCell id="7PUVm03l3qs85_bHvU6c-17" value="" style="rounded=1;whiteSpace=wrap;html=1;fillColor=#008a00;strokeColor=#005700;fontColor=#ffffff;" vertex="1" parent="1">
          <mxGeometry x="562.94" y="380" width="20" height="20" as="geometry" />
        </mxCell>
        <mxCell id="7PUVm03l3qs85_bHvU6c-18" value="" style="rounded=1;whiteSpace=wrap;html=1;fillColor=#e51400;strokeColor=#B20000;fontColor=#ffffff;" vertex="1" parent="1">
          <mxGeometry x="601.96" y="380" width="20" height="20" as="geometry" />
        </mxCell>
        <mxCell id="7PUVm03l3qs85_bHvU6c-19" value="" style="rounded=1;whiteSpace=wrap;html=1;fillColor=#6a00ff;strokeColor=#3700CC;fontColor=#ffffff;" vertex="1" parent="1">
          <mxGeometry x="640.98" y="380" width="20" height="20" as="geometry" />
        </mxCell>
        <mxCell id="7PUVm03l3qs85_bHvU6c-32" style="edgeStyle=orthogonalEdgeStyle;rounded=0;orthogonalLoop=1;jettySize=auto;html=1;entryX=0;entryY=0.5;entryDx=0;entryDy=0;" edge="1" parent="1" source="7PUVm03l3qs85_bHvU6c-22" target="7PUVm03l3qs85_bHvU6c-23">
          <mxGeometry relative="1" as="geometry" />
        </mxCell>
        <mxCell id="7PUVm03l3qs85_bHvU6c-33" style="edgeStyle=orthogonalEdgeStyle;rounded=0;orthogonalLoop=1;jettySize=auto;html=1;entryX=0;entryY=0.5;entryDx=0;entryDy=0;" edge="1" parent="1" source="7PUVm03l3qs85_bHvU6c-22" target="7PUVm03l3qs85_bHvU6c-24">
          <mxGeometry relative="1" as="geometry" />
        </mxCell>
        <mxCell id="7PUVm03l3qs85_bHvU6c-34" style="edgeStyle=orthogonalEdgeStyle;rounded=0;orthogonalLoop=1;jettySize=auto;html=1;exitX=0.5;exitY=1;exitDx=0;exitDy=0;entryX=0;entryY=0.5;entryDx=0;entryDy=0;" edge="1" parent="1" source="7PUVm03l3qs85_bHvU6c-22" target="7PUVm03l3qs85_bHvU6c-25">
          <mxGeometry relative="1" as="geometry" />
        </mxCell>
        <mxCell id="7PUVm03l3qs85_bHvU6c-22" value="Host1 (127.0.0.1)" style="rounded=1;whiteSpace=wrap;html=1;" vertex="1" parent="1">
          <mxGeometry x="147.5" y="300" width="180" height="40" as="geometry" />
        </mxCell>
        <mxCell id="7PUVm03l3qs85_bHvU6c-23" value="CT1" style="rounded=1;whiteSpace=wrap;html=1;" vertex="1" parent="1">
          <mxGeometry x="257.5" y="375" width="70" height="30" as="geometry" />
        </mxCell>
        <mxCell id="7PUVm03l3qs85_bHvU6c-24" value="CT2" style="rounded=1;whiteSpace=wrap;html=1;" vertex="1" parent="1">
          <mxGeometry x="257.5" y="420" width="70" height="30" as="geometry" />
        </mxCell>
        <mxCell id="7PUVm03l3qs85_bHvU6c-25" value="CT3" style="rounded=1;whiteSpace=wrap;html=1;" vertex="1" parent="1">
          <mxGeometry x="257.5" y="465" width="70" height="30" as="geometry" />
        </mxCell>
        <mxCell id="7PUVm03l3qs85_bHvU6c-26" value="" style="rounded=1;whiteSpace=wrap;html=1;fillColor=#008a00;strokeColor=#005700;fontColor=#ffffff;" vertex="1" parent="1">
          <mxGeometry x="562.94" y="425" width="20" height="20" as="geometry" />
        </mxCell>
        <mxCell id="7PUVm03l3qs85_bHvU6c-27" value="" style="rounded=1;whiteSpace=wrap;html=1;fillColor=#e51400;strokeColor=#B20000;fontColor=#ffffff;" vertex="1" parent="1">
          <mxGeometry x="601.96" y="425" width="20" height="20" as="geometry" />
        </mxCell>
        <mxCell id="7PUVm03l3qs85_bHvU6c-28" value="" style="rounded=1;whiteSpace=wrap;html=1;fillColor=#6a00ff;strokeColor=#3700CC;fontColor=#ffffff;" vertex="1" parent="1">
          <mxGeometry x="640.98" y="425" width="20" height="20" as="geometry" />
        </mxCell>
        <mxCell id="7PUVm03l3qs85_bHvU6c-29" value="" style="rounded=1;whiteSpace=wrap;html=1;fillColor=#008a00;strokeColor=#005700;fontColor=#ffffff;" vertex="1" parent="1">
          <mxGeometry x="562.94" y="470" width="20" height="20" as="geometry" />
        </mxCell>
        <mxCell id="7PUVm03l3qs85_bHvU6c-30" value="" style="rounded=1;whiteSpace=wrap;html=1;fillColor=#e51400;strokeColor=#B20000;fontColor=#ffffff;" vertex="1" parent="1">
          <mxGeometry x="601.96" y="470" width="20" height="20" as="geometry" />
        </mxCell>
        <mxCell id="7PUVm03l3qs85_bHvU6c-31" value="" style="rounded=1;whiteSpace=wrap;html=1;fillColor=#6a00ff;strokeColor=#3700CC;fontColor=#ffffff;" vertex="1" parent="1">
          <mxGeometry x="640.98" y="470" width="20" height="20" as="geometry" />
        </mxCell>
        <mxCell id="7PUVm03l3qs85_bHvU6c-35" value="&lt;font style=&quot;font-size: 12px;&quot;&gt;Start&lt;/font&gt;" style="text;strokeColor=none;fillColor=none;html=1;fontSize=24;fontStyle=1;verticalAlign=middle;align=center;rounded=1;" vertex="1" parent="1">
          <mxGeometry x="543.9200000000001" y="335" width="58.04" height="40" as="geometry" />
        </mxCell>
        <mxCell id="7PUVm03l3qs85_bHvU6c-40" value="&lt;font style=&quot;font-size: 12px;&quot;&gt;Stop&lt;/font&gt;" style="text;strokeColor=none;fillColor=none;html=1;fontSize=24;fontStyle=1;verticalAlign=middle;align=center;rounded=1;" vertex="1" parent="1">
          <mxGeometry x="580" y="330" width="60.98" height="45" as="geometry" />
        </mxCell>
        <mxCell id="7PUVm03l3qs85_bHvU6c-41" value="&lt;font style=&quot;font-size: 11px;&quot;&gt;Restart&lt;/font&gt;" style="text;strokeColor=none;fillColor=none;html=1;fontSize=24;fontStyle=1;verticalAlign=middle;align=center;rounded=1;" vertex="1" parent="1">
          <mxGeometry x="621.96" y="335" width="58.04" height="40" as="geometry" />
        </mxCell>
        <mxCell id="7PUVm03l3qs85_bHvU6c-45" value="%" style="text;strokeColor=none;fillColor=none;html=1;fontSize=24;fontStyle=1;verticalAlign=middle;align=center;" vertex="1" parent="1">
          <mxGeometry x="500" y="375" width="50" height="30" as="geometry" />
        </mxCell>
        <mxCell id="7PUVm03l3qs85_bHvU6c-46" value="%" style="text;strokeColor=none;fillColor=none;html=1;fontSize=24;fontStyle=1;verticalAlign=middle;align=center;" vertex="1" parent="1">
          <mxGeometry x="450" y="375" width="50" height="30" as="geometry" />
        </mxCell>
        <mxCell id="7PUVm03l3qs85_bHvU6c-47" value="%" style="text;strokeColor=none;fillColor=none;html=1;fontSize=24;fontStyle=1;verticalAlign=middle;align=center;" vertex="1" parent="1">
          <mxGeometry x="500" y="420" width="50" height="30" as="geometry" />
        </mxCell>
        <mxCell id="7PUVm03l3qs85_bHvU6c-48" value="%" style="text;strokeColor=none;fillColor=none;html=1;fontSize=24;fontStyle=1;verticalAlign=middle;align=center;" vertex="1" parent="1">
          <mxGeometry x="500" y="465" width="50" height="30" as="geometry" />
        </mxCell>
        <mxCell id="7PUVm03l3qs85_bHvU6c-49" value="%" style="text;strokeColor=none;fillColor=none;html=1;fontSize=24;fontStyle=1;verticalAlign=middle;align=center;" vertex="1" parent="1">
          <mxGeometry x="450" y="420" width="50" height="30" as="geometry" />
        </mxCell>
        <mxCell id="7PUVm03l3qs85_bHvU6c-50" value="%" style="text;strokeColor=none;fillColor=none;html=1;fontSize=24;fontStyle=1;verticalAlign=middle;align=center;" vertex="1" parent="1">
          <mxGeometry x="450" y="465" width="50" height="30" as="geometry" />
        </mxCell>
        <mxCell id="7PUVm03l3qs85_bHvU6c-51" value="&lt;font style=&quot;font-size: 12px;&quot;&gt;Mem&lt;/font&gt;" style="text;strokeColor=none;fillColor=none;html=1;fontSize=24;fontStyle=1;verticalAlign=middle;align=center;" vertex="1" parent="1">
          <mxGeometry x="475" y="335" width="100" height="40" as="geometry" />
        </mxCell>
        <mxCell id="7PUVm03l3qs85_bHvU6c-52" value="&lt;font style=&quot;font-size: 12px;&quot;&gt;CPU&lt;/font&gt;" style="text;strokeColor=none;fillColor=none;html=1;fontSize=24;fontStyle=1;verticalAlign=middle;align=center;" vertex="1" parent="1">
          <mxGeometry x="420" y="335" width="100" height="40" as="geometry" />
        </mxCell>
        <mxCell id="7PUVm03l3qs85_bHvU6c-53" value="&lt;font style=&quot;font-size: 14px;&quot;&gt;Status&lt;/font&gt;" style="text;strokeColor=none;fillColor=none;html=1;fontSize=24;fontStyle=1;verticalAlign=middle;align=center;" vertex="1" parent="1">
          <mxGeometry x="350" y="335" width="100" height="40" as="geometry" />
        </mxCell>
        <mxCell id="7PUVm03l3qs85_bHvU6c-54" value="&lt;font style=&quot;font-size: 13px;&quot;&gt;Running&lt;/font&gt;" style="text;strokeColor=#82b366;fillColor=#d5e8d4;html=1;fontSize=24;fontStyle=1;verticalAlign=middle;align=center;" vertex="1" parent="1">
          <mxGeometry x="350" y="370" width="100" height="40" as="geometry" />
        </mxCell>
        <mxCell id="7PUVm03l3qs85_bHvU6c-55" value="&lt;font style=&quot;font-size: 13px;&quot;&gt;Running&lt;/font&gt;" style="text;strokeColor=#82b366;fillColor=#d5e8d4;html=1;fontSize=24;fontStyle=1;verticalAlign=middle;align=center;" vertex="1" parent="1">
          <mxGeometry x="350" y="460" width="100" height="40" as="geometry" />
        </mxCell>
        <mxCell id="7PUVm03l3qs85_bHvU6c-56" value="&lt;font style=&quot;font-size: 13px;&quot;&gt;Stopped&lt;/font&gt;" style="text;strokeColor=#b85450;fillColor=#f8cecc;html=1;fontSize=24;fontStyle=1;verticalAlign=middle;align=center;" vertex="1" parent="1">
          <mxGeometry x="350" y="415" width="100" height="40" as="geometry" />
        </mxCell>
        <mxCell id="7PUVm03l3qs85_bHvU6c-57" value="" style="shape=image;verticalLabelPosition=bottom;labelBackgroundColor=default;verticalAlign=top;aspect=fixed;imageAspect=0;image=https://ih1.redbubble.net/image.5413513681.8870/bg,f8f8f8-flat,750x,075,f-pad,750x1000,f8f8f8.u5.jpg;" vertex="1" parent="1">
          <mxGeometry x="610" y="80" width="127.5" height="170" as="geometry" />
        </mxCell>
        <mxCell id="7PUVm03l3qs85_bHvU6c-90" style="edgeStyle=orthogonalEdgeStyle;rounded=0;orthogonalLoop=1;jettySize=auto;html=1;entryX=0;entryY=0.5;entryDx=0;entryDy=0;" edge="1" parent="1" source="7PUVm03l3qs85_bHvU6c-61" target="7PUVm03l3qs85_bHvU6c-62">
          <mxGeometry relative="1" as="geometry" />
        </mxCell>
        <mxCell id="7PUVm03l3qs85_bHvU6c-91" style="edgeStyle=orthogonalEdgeStyle;rounded=0;orthogonalLoop=1;jettySize=auto;html=1;exitX=0.5;exitY=1;exitDx=0;exitDy=0;entryX=0;entryY=0.5;entryDx=0;entryDy=0;" edge="1" parent="1" source="7PUVm03l3qs85_bHvU6c-61" target="7PUVm03l3qs85_bHvU6c-63">
          <mxGeometry relative="1" as="geometry" />
        </mxCell>
        <mxCell id="7PUVm03l3qs85_bHvU6c-92" style="edgeStyle=orthogonalEdgeStyle;rounded=0;orthogonalLoop=1;jettySize=auto;html=1;exitX=0.5;exitY=1;exitDx=0;exitDy=0;entryX=0;entryY=0.5;entryDx=0;entryDy=0;" edge="1" parent="1" source="7PUVm03l3qs85_bHvU6c-61" target="7PUVm03l3qs85_bHvU6c-64">
          <mxGeometry relative="1" as="geometry" />
        </mxCell>
        <mxCell id="7PUVm03l3qs85_bHvU6c-61" value="Host2 (127.0.0.1)" style="rounded=1;whiteSpace=wrap;html=1;" vertex="1" parent="1">
          <mxGeometry x="147.5" y="530" width="180" height="40" as="geometry" />
        </mxCell>
        <mxCell id="7PUVm03l3qs85_bHvU6c-62" value="CT1" style="rounded=1;whiteSpace=wrap;html=1;" vertex="1" parent="1">
          <mxGeometry x="257.5" y="605" width="70" height="30" as="geometry" />
        </mxCell>
        <mxCell id="7PUVm03l3qs85_bHvU6c-63" value="CT2" style="rounded=1;whiteSpace=wrap;html=1;" vertex="1" parent="1">
          <mxGeometry x="257.5" y="650" width="70" height="30" as="geometry" />
        </mxCell>
        <mxCell id="7PUVm03l3qs85_bHvU6c-64" value="CT3" style="rounded=1;whiteSpace=wrap;html=1;" vertex="1" parent="1">
          <mxGeometry x="257.5" y="695" width="70" height="30" as="geometry" />
        </mxCell>
        <mxCell id="7PUVm03l3qs85_bHvU6c-65" value="%" style="text;strokeColor=none;fillColor=none;html=1;fontSize=24;fontStyle=1;verticalAlign=middle;align=center;" vertex="1" parent="1">
          <mxGeometry x="450" y="605" width="50" height="30" as="geometry" />
        </mxCell>
        <mxCell id="7PUVm03l3qs85_bHvU6c-66" value="%" style="text;strokeColor=none;fillColor=none;html=1;fontSize=24;fontStyle=1;verticalAlign=middle;align=center;" vertex="1" parent="1">
          <mxGeometry x="450" y="650" width="50" height="30" as="geometry" />
        </mxCell>
        <mxCell id="7PUVm03l3qs85_bHvU6c-67" value="%" style="text;strokeColor=none;fillColor=none;html=1;fontSize=24;fontStyle=1;verticalAlign=middle;align=center;" vertex="1" parent="1">
          <mxGeometry x="450" y="695" width="50" height="30" as="geometry" />
        </mxCell>
        <mxCell id="7PUVm03l3qs85_bHvU6c-70" value="&lt;font style=&quot;font-size: 13px;&quot;&gt;Running&lt;/font&gt;" style="text;strokeColor=#82b366;fillColor=#d5e8d4;html=1;fontSize=24;fontStyle=1;verticalAlign=middle;align=center;" vertex="1" parent="1">
          <mxGeometry x="350" y="600" width="100" height="40" as="geometry" />
        </mxCell>
        <mxCell id="7PUVm03l3qs85_bHvU6c-71" value="&lt;font style=&quot;font-size: 13px;&quot;&gt;Running&lt;/font&gt;" style="text;strokeColor=#82b366;fillColor=#d5e8d4;html=1;fontSize=24;fontStyle=1;verticalAlign=middle;align=center;" vertex="1" parent="1">
          <mxGeometry x="350" y="690" width="100" height="40" as="geometry" />
        </mxCell>
        <mxCell id="7PUVm03l3qs85_bHvU6c-72" value="&lt;font style=&quot;font-size: 13px;&quot;&gt;Stopped&lt;/font&gt;" style="text;strokeColor=#b85450;fillColor=#f8cecc;html=1;fontSize=24;fontStyle=1;verticalAlign=middle;align=center;" vertex="1" parent="1">
          <mxGeometry x="350" y="645" width="100" height="40" as="geometry" />
        </mxCell>
        <mxCell id="7PUVm03l3qs85_bHvU6c-75" value="" style="rounded=1;whiteSpace=wrap;html=1;fillColor=#008a00;strokeColor=#005700;fontColor=#ffffff;" vertex="1" parent="1">
          <mxGeometry x="562.94" y="610" width="20" height="20" as="geometry" />
        </mxCell>
        <mxCell id="7PUVm03l3qs85_bHvU6c-76" value="" style="rounded=1;whiteSpace=wrap;html=1;fillColor=#e51400;strokeColor=#B20000;fontColor=#ffffff;" vertex="1" parent="1">
          <mxGeometry x="601.96" y="610" width="20" height="20" as="geometry" />
        </mxCell>
        <mxCell id="7PUVm03l3qs85_bHvU6c-77" value="" style="rounded=1;whiteSpace=wrap;html=1;fillColor=#6a00ff;strokeColor=#3700CC;fontColor=#ffffff;" vertex="1" parent="1">
          <mxGeometry x="640.98" y="610" width="20" height="20" as="geometry" />
        </mxCell>
        <mxCell id="7PUVm03l3qs85_bHvU6c-78" value="" style="rounded=1;whiteSpace=wrap;html=1;fillColor=#008a00;strokeColor=#005700;fontColor=#ffffff;" vertex="1" parent="1">
          <mxGeometry x="562.94" y="655" width="20" height="20" as="geometry" />
        </mxCell>
        <mxCell id="7PUVm03l3qs85_bHvU6c-79" value="" style="rounded=1;whiteSpace=wrap;html=1;fillColor=#e51400;strokeColor=#B20000;fontColor=#ffffff;" vertex="1" parent="1">
          <mxGeometry x="601.96" y="655" width="20" height="20" as="geometry" />
        </mxCell>
        <mxCell id="7PUVm03l3qs85_bHvU6c-80" value="" style="rounded=1;whiteSpace=wrap;html=1;fillColor=#6a00ff;strokeColor=#3700CC;fontColor=#ffffff;" vertex="1" parent="1">
          <mxGeometry x="640.98" y="655" width="20" height="20" as="geometry" />
        </mxCell>
        <mxCell id="7PUVm03l3qs85_bHvU6c-81" value="" style="rounded=1;whiteSpace=wrap;html=1;fillColor=#008a00;strokeColor=#005700;fontColor=#ffffff;" vertex="1" parent="1">
          <mxGeometry x="562.94" y="700" width="20" height="20" as="geometry" />
        </mxCell>
        <mxCell id="7PUVm03l3qs85_bHvU6c-82" value="" style="rounded=1;whiteSpace=wrap;html=1;fillColor=#e51400;strokeColor=#B20000;fontColor=#ffffff;" vertex="1" parent="1">
          <mxGeometry x="601.96" y="700" width="20" height="20" as="geometry" />
        </mxCell>
        <mxCell id="7PUVm03l3qs85_bHvU6c-83" value="" style="rounded=1;whiteSpace=wrap;html=1;fillColor=#6a00ff;strokeColor=#3700CC;fontColor=#ffffff;" vertex="1" parent="1">
          <mxGeometry x="640.98" y="700" width="20" height="20" as="geometry" />
        </mxCell>
        <mxCell id="7PUVm03l3qs85_bHvU6c-86" value="%" style="text;strokeColor=none;fillColor=none;html=1;fontSize=24;fontStyle=1;verticalAlign=middle;align=center;" vertex="1" parent="1">
          <mxGeometry x="500" y="605" width="50" height="30" as="geometry" />
        </mxCell>
        <mxCell id="7PUVm03l3qs85_bHvU6c-87" value="%" style="text;strokeColor=none;fillColor=none;html=1;fontSize=24;fontStyle=1;verticalAlign=middle;align=center;" vertex="1" parent="1">
          <mxGeometry x="500" y="650" width="50" height="30" as="geometry" />
        </mxCell>
        <mxCell id="7PUVm03l3qs85_bHvU6c-88" value="%" style="text;strokeColor=none;fillColor=none;html=1;fontSize=24;fontStyle=1;verticalAlign=middle;align=center;" vertex="1" parent="1">
          <mxGeometry x="500" y="695" width="50" height="30" as="geometry" />
        </mxCell>
        <mxCell id="7PUVm03l3qs85_bHvU6c-93" value="&lt;font style=&quot;font-size: 40px;&quot;&gt;Lime Koala&lt;br&gt;&lt;/font&gt;" style="ellipse;shape=cloud;whiteSpace=wrap;html=1;fillColor=#d5e8d4;strokeColor=#82b366;" vertex="1" parent="1">
          <mxGeometry x="280" y="70" width="310" height="180" as="geometry" />
        </mxCell>
      </root>
    </mxGraphModel>
  </diagram>
</mxfile>
